{"glyphs":{"0":{"ha":833,"x_min":58,"x_max":775,"o":"m 417 1011 q 688 864 592 1011 q 775 496 775 726 q 688 128 775 265 q 417 -19 590 -19 q 146 128 243 -19 q 58 496 58 265 q 146 864 58 729 q 417 1011 242 1011 m 417 883 q 244 749 294 883 q 208 496 208 660 q 244 243 208 333 q 417 108 294 108 q 589 243 539 108 q 625 496 625 339 q 589 749 625 656 q 417 883 539 883 z "},"1":{"ha":833,"x_min":142,"x_max":521,"o":"m 521 992 l 521 0 l 369 0 l 369 810 q 142 685 278 724 l 142 835 q 283 893 208 851 q 406 992 358 940 l 521 992 z "},"2":{"ha":833,"x_min":75,"x_max":758,"o":"m 432 1011 q 667 929 576 1011 q 757 715 757 846 q 660 481 757 589 q 454 321 601 421 q 263 133 294 215 l 758 133 l 758 0 l 75 0 q 174 260 75 149 q 397 440 225 321 q 539 554 499 513 q 607 717 607 631 q 561 842 607 800 q 426 883 515 883 q 285 819 332 883 q 232 638 236 758 l 81 638 q 176 904 83 804 q 432 1011 271 1011 z "},"3":{"ha":833,"x_min":60,"x_max":775,"o":"m 426 1011 q 667 939 576 1011 q 756 739 756 865 q 592 521 756 575 q 725 439 678 494 q 775 294 775 383 q 681 69 775 157 q 421 -19 579 -19 q 176 58 269 -19 q 60 313 72 146 l 213 313 q 278 158 217 211 q 419 108 332 108 q 574 164 514 108 q 625 288 625 215 q 571 417 625 375 q 422 458 521 458 l 350 458 l 350 572 l 421 572 q 558 613 511 572 q 606 728 606 653 q 563 842 606 801 q 428 882 518 882 q 288 836 338 882 q 228 699 236 789 l 79 699 q 189 929 92 846 q 426 1011 279 1011 z "},"4":{"ha":833,"x_min":28,"x_max":806,"o":"m 517 992 l 656 992 l 656 336 l 806 336 l 806 215 l 656 215 l 656 0 l 511 0 l 511 215 l 28 215 l 28 358 l 517 992 m 507 800 l 151 336 l 511 336 l 511 800 l 507 800 z "},"5":{"ha":833,"x_min":60,"x_max":774,"o":"m 132 992 l 729 992 l 729 858 l 254 858 l 225 572 l 229 572 q 335 640 275 619 q 457 663 388 663 q 685 571 597 663 q 774 319 774 478 q 660 68 774 167 q 406 -19 554 -19 q 176 54 274 -19 q 60 272 71 133 l 208 272 q 274 146 217 188 q 407 108 324 108 q 561 165 497 108 q 624 318 624 224 q 569 481 624 422 q 417 539 515 539 q 301 515 349 539 q 219 436 249 492 l 78 436 l 132 992 z "},"6":{"ha":833,"x_min":60,"x_max":775,"o":"m 431 1011 q 757 742 719 1011 l 610 742 q 429 886 579 886 q 265 785 325 886 q 206 544 206 690 q 207 526 206 535 l 213 526 q 318 624 254 593 q 456 654 375 654 q 689 563 601 654 q 775 322 775 468 q 676 78 775 174 q 429 -19 575 -19 q 151 114 247 -19 q 60 468 60 242 q 158 860 60 713 q 431 1011 258 1011 m 425 532 q 278 474 332 532 q 224 318 224 415 q 279 164 224 221 q 424 106 333 106 q 569 167 515 106 q 626 322 626 231 q 572 474 626 419 q 425 532 518 532 z "},"7":{"ha":833,"x_min":85,"x_max":750,"o":"m 85 992 l 750 992 l 750 869 l 399 0 l 239 0 l 597 854 l 85 854 l 85 992 z "},"8":{"ha":833,"x_min":47,"x_max":786,"o":"m 417 1011 q 668 928 575 1011 q 751 742 751 853 q 718 613 751 665 q 606 528 681 557 l 606 524 q 728 440 678 507 q 786 276 786 369 q 690 63 786 146 q 417 -19 592 -19 q 143 63 240 -19 q 47 276 47 146 q 106 440 47 369 q 228 524 156 507 l 228 528 q 115 613 153 557 q 82 742 82 665 q 165 928 82 853 q 417 1011 257 1011 m 417 890 q 271 842 324 890 q 224 736 224 800 q 263 624 224 664 q 417 574 311 574 q 571 624 521 574 q 610 736 610 667 q 563 842 610 799 q 417 890 510 890 m 417 461 q 253 408 306 461 q 197 276 197 358 q 254 151 197 199 q 417 103 311 103 q 582 151 521 103 q 636 276 636 200 q 582 407 636 360 q 417 461 524 461 z "},"9":{"ha":833,"x_min":60,"x_max":775,"o":"m 406 1011 q 682 879 588 1011 q 775 524 775 750 q 676 132 775 283 q 404 -19 574 -19 q 78 250 115 -19 l 225 250 q 406 106 254 106 q 569 207 506 106 q 629 447 629 306 l 628 465 l 622 465 q 517 368 582 403 q 379 338 453 338 q 144 432 232 338 q 60 669 60 522 q 158 914 60 819 q 406 1011 257 1011 m 411 886 q 264 825 317 886 q 208 669 208 765 q 264 518 208 574 q 410 460 317 460 q 557 518 503 460 q 611 674 611 576 q 556 828 611 769 q 411 886 500 886 z "},"(":{"ha":463,"x_min":63,"x_max":400,"o":"m 400 1149 q 267 861 313 1007 q 206 500 206 686 q 267 139 206 317 q 400 -149 313 -4 l 276 -149 q 126 135 179 -11 q 63 499 63 310 q 126 864 63 690 q 276 1149 178 1013 l 400 1149 z "},")":{"ha":463,"x_min":63,"x_max":400,"o":"m 186 1149 q 336 864 282 1013 q 400 499 400 685 q 336 135 400 315 q 186 -149 282 -11 l 63 -149 q 196 139 149 -4 q 257 500 257 322 q 196 861 257 681 q 63 1149 149 1007 l 186 1149 z "},"业":{"ha":1389,"x_min":75,"x_max":1314,"o":"m 478 1128 l 610 1128 l 610 36 l 776 36 l 776 1128 l 908 1128 l 908 36 l 1314 36 l 1314 -93 l 75 -93 l 75 36 l 478 36 l 478 1128 m 1285 836 q 1081 210 1206 479 l 963 251 q 1168 869 1081 497 l 1285 836 m 215 872 q 404 235 319 597 l 283 204 q 103 836 214 524 l 215 872 z "},"务":{"ha":1389,"x_min":54,"x_max":1338,"o":"m 594 1125 q 549 1031 572 1072 l 1143 1031 l 1143 924 q 840 675 1018 779 q 1338 565 1068 590 l 1278 442 q 696 601 951 479 q 115 439 447 489 l 54 563 q 551 679 336 599 q 367 810 460 733 q 211 697 294 747 l 131 803 q 460 1144 375 943 l 594 1125 m 694 740 q 950 907 836 810 l 463 907 q 454 897 456 900 q 694 740 564 807 m 725 517 q 714 375 725 446 l 1193 375 q 1131 -61 1189 10 q 925 -133 1071 -133 q 753 -126 864 -133 l 719 -7 q 894 -15 828 -11 q 1028 29 1000 -14 q 1061 257 1054 72 l 685 257 q 642 163 664 201 q 153 -147 538 -25 l 65 -40 q 510 203 407 60 q 540 257 532 239 l 150 257 l 150 375 l 581 375 q 594 517 594 449 l 725 517 z "},"单":{"ha":1389,"x_min":72,"x_max":1317,"o":"m 219 928 l 475 928 q 356 1092 422 1014 l 469 1146 q 600 960 533 1068 l 538 928 l 799 928 q 901 1151 860 1038 l 1028 1106 q 931 928 979 1001 l 1169 928 l 1169 328 l 761 328 l 761 225 l 1317 225 l 1317 99 l 761 99 l 761 -149 l 628 -149 l 628 99 l 72 99 l 72 225 l 628 225 l 628 328 l 219 328 l 219 928 m 1039 444 l 1039 571 l 761 571 l 761 444 l 1039 444 m 628 444 l 628 571 l 350 571 l 350 444 l 628 444 m 350 685 l 628 685 l 628 808 l 350 808 l 350 685 m 761 808 l 761 685 l 1039 685 l 1039 808 l 761 808 z "},"位":{"ha":1389,"x_min":43,"x_max":1336,"o":"m 482 1093 q 347 790 428 931 l 347 -146 l 217 -146 l 217 597 q 86 449 147 511 l 43 589 q 358 1150 257 832 l 482 1093 m 456 926 l 814 926 q 750 1113 785 1028 l 889 1135 q 946 926 921 1035 l 1300 926 l 1300 800 l 456 800 l 456 926 m 432 43 l 904 43 q 1082 726 1007 322 l 1208 694 q 1039 43 1140 333 l 1336 43 l 1336 -86 l 432 -86 l 432 43 m 649 714 q 789 110 724 463 l 667 78 q 526 675 614 381 l 649 714 z "},"终":{"ha":1389,"x_min":46,"x_max":1347,"o":"m 519 22 q 81 -96 317 -51 l 61 43 q 519 157 317 83 l 519 22 m 393 1099 q 199 700 296 851 q 338 721 268 708 l 418 894 l 533 851 q 256 349 363 497 q 461 417 361 376 l 461 299 q 104 201 265 225 l 69 321 q 128 358 103 336 q 279 601 188 428 l 78 571 l 46 690 q 100 739 78 703 q 271 1146 199 925 l 393 1099 m 804 397 q 1193 251 1015 338 l 1128 151 q 735 296 942 240 l 804 397 m 636 175 q 1244 -36 976 86 l 1175 -146 q 561 65 872 -11 l 636 175 m 886 1128 q 850 1017 865 1056 l 1232 1017 l 1232 910 q 1032 625 1147 744 q 1347 461 1169 533 l 1278 342 q 939 539 1090 425 q 547 324 768 399 l 482 440 q 838 622 688 504 q 700 758 757 694 q 597 651 651 701 l 514 760 q 753 1144 692 919 l 886 1128 m 928 701 q 1081 890 1017 790 l 790 890 q 768 853 782 878 q 928 701 833 778 z "},"端":{"ha":1389,"x_min":51,"x_max":1321,"o":"m 56 918 l 225 918 q 165 1100 197 1019 l 297 1122 q 350 918 326 1025 l 503 918 l 503 793 l 56 793 l 56 918 m 193 729 q 258 189 226 517 l 153 163 q 85 694 125 450 l 193 729 m 497 183 l 497 57 q 85 -61 310 -12 l 51 69 q 289 118 165 88 q 351 743 331 414 l 469 726 q 401 150 444 408 l 497 183 m 1138 881 l 1138 1082 l 1263 1082 l 1263 765 l 579 765 l 579 1082 l 706 1082 l 706 881 l 856 881 l 856 1136 l 983 1136 l 983 881 l 1138 881 m 531 676 l 1321 676 l 1321 554 l 968 554 q 938 449 960 518 l 1290 449 l 1290 -22 q 1190 -137 1290 -137 l 1128 -137 l 1096 -19 l 1151 -25 q 1172 3 1172 -25 l 1172 332 l 1076 332 l 1076 -112 l 967 -112 l 967 332 l 882 332 l 882 -114 l 772 -114 l 772 332 l 679 332 l 679 -137 l 561 -137 l 561 449 l 808 449 q 839 554 825 497 l 531 554 l 531 676 z "},"个":{"ha":1389,"x_min":44,"x_max":1344,"o":"m 628 725 l 761 725 l 761 -142 l 628 -142 l 628 725 m 753 1139 q 1344 646 926 858 l 1265 525 q 694 1015 882 722 q 124 524 469 697 l 44 643 q 636 1139 428 835 l 753 1139 z "},"服":{"ha":1389,"x_min":64,"x_max":1342,"o":"m 267 646 l 267 443 l 461 443 l 461 646 l 267 646 m 461 764 l 461 969 l 267 969 l 267 764 l 461 764 m 264 324 q 164 -146 249 39 l 64 -56 q 149 407 146 124 l 149 1089 l 581 1089 l 581 3 q 453 -139 581 -139 l 342 -139 l 310 -22 q 417 -29 375 -29 q 461 46 461 -29 l 461 324 l 264 324 m 799 461 l 799 -35 q 983 113 903 22 q 817 461 863 267 l 799 461 m 799 -39 l 799 -144 l 675 -144 l 675 1089 l 1260 1089 q 1235 729 1260 819 q 1076 642 1210 642 l 960 642 l 925 753 l 1017 751 q 1082 758 1058 751 q 1115 794 1103 764 q 1132 969 1128 831 l 799 969 l 799 578 l 1268 578 l 1268 467 q 1143 118 1231 261 q 1342 -29 1225 40 l 1276 -140 q 1069 17 1158 -69 q 867 -142 985 -78 l 799 -39 m 929 461 q 1056 215 971 324 q 1151 461 1118 324 l 929 461 z "},"器":{"ha":1389,"x_min":53,"x_max":1338,"o":"m 185 1093 l 631 1093 l 631 732 l 185 732 l 185 1093 m 511 842 l 511 981 l 304 981 l 304 842 l 511 842 m 760 1093 l 1218 1093 l 1218 732 l 1053 732 q 1122 619 1094 675 l 1311 619 l 1311 503 l 968 503 q 1338 336 1099 399 l 1285 225 l 1208 253 l 1208 -144 l 1092 -144 l 1092 -90 l 867 -90 l 867 -144 l 750 -144 l 750 310 l 1081 310 q 822 503 913 396 l 597 503 q 331 310 490 388 l 638 310 l 638 -144 l 521 -144 l 521 -90 l 319 -90 l 319 -144 l 204 -144 l 204 257 q 113 226 174 246 l 53 333 q 424 503 285 400 l 78 503 l 78 619 l 542 619 q 599 718 578 668 l 725 704 q 683 619 707 664 l 993 619 q 940 699 969 660 l 1043 732 l 760 732 l 760 1093 m 1099 842 l 1099 981 l 879 981 l 879 842 l 1099 842 m 319 22 l 521 22 l 521 201 l 319 201 l 319 22 m 867 22 l 1092 22 l 1092 201 l 867 201 l 867 22 z "}}}
